<svg width="35" height="35" viewBox="0 0 35 35" fill="none" xmlns="http://www.w3.org/2000/svg">
<circle cx="17.5" cy="17.5" r="17.5" fill="#C556B4"/>
<path d="M9.625 10.368V14.9105C9.625 15.396 9.97369 15.8113 10.4518 15.8954L14.4857 16.6046C14.9638 16.6887 15.3125 17.104 15.3125 17.5895V17.9105C15.3125 18.396 14.9638 18.8113 14.4857 18.8954L10.4518 19.6046C9.97369 19.6887 9.625 20.104 9.625 20.5895V24.7001C9.625 25.4266 10.3752 25.9106 11.0372 25.6112L26.0858 18.8035C26.853 18.4564 26.874 17.3745 26.1208 16.9979L11.0722 9.47361C10.4073 9.14116 9.625 9.62465 9.625 10.368Z" fill="white"/>
</svg>
