<svg width="293" height="165" viewBox="0 0 293 165" fill="none" xmlns="http://www.w3.org/2000/svg">
<path d="M0 165V65C1.80416e-06 34.6243 24.6243 10 55 10H238C268.376 10 293 34.6243 293 65V93C293 123.376 268.376 148 238 148H67L0 165Z" fill="#C556B4"/>
<path d="M45.6469 115.44C42.6069 115.44 39.7269 114.84 37.0069 113.64C34.2869 112.36 32.0869 110.56 30.4069 108.24C28.7269 105.84 27.8869 103.04 27.8869 99.84C27.8869 95.36 29.1669 91.72 31.7269 88.92C34.2869 86.04 37.6869 83.76 41.9269 82.08C46.1669 80.4 50.7669 79.12 55.7269 78.24C60.7669 77.36 65.7269 76.68 70.6069 76.2C70.9269 75 71.1269 74.04 71.2069 73.32C71.2869 72.6 71.3269 72 71.3269 71.52C71.3269 69.2 70.5669 67.56 69.0469 66.6C67.5269 65.64 65.4069 65.16 62.6869 65.16C60.1269 65.16 57.7269 65.76 55.4869 66.96C53.2469 68.08 51.5669 69.84 50.4469 72.24L36.4069 66.72C39.4469 62 43.3269 58.52 48.0469 56.28C52.7669 53.96 58.4869 52.8 65.2069 52.8C69.8469 52.8 73.9669 53.52 77.5669 54.96C81.2469 56.32 84.1269 58.4 86.2069 61.2C88.2869 64 89.3269 67.48 89.3269 71.64C89.3269 73.24 89.0869 75.24 88.6069 77.64C88.2069 80.04 87.7269 82.44 87.1669 84.84C86.6069 87.16 86.1669 89.16 85.8469 90.84C85.2869 93.4 84.7669 96.16 84.2869 99.12C83.8869 102.08 83.5669 104.88 83.3269 107.52C83.0869 110.08 82.9669 112.24 82.9669 114H65.6869L65.0869 106.92C62.3669 110.2 59.4869 112.44 56.4469 113.64C53.4869 114.84 49.8869 115.44 45.6469 115.44ZM55.0069 103.08C58.2869 103.08 61.0869 102.04 63.4069 99.96C65.8069 97.8 67.6869 93.96 69.0469 88.44L69.4069 87C62.6869 87.56 57.2869 88.64 53.2069 90.24C49.2069 91.76 47.2069 94.16 47.2069 97.44C47.2069 99.2 47.9669 100.6 49.4869 101.64C51.0069 102.6 52.8469 103.08 55.0069 103.08ZM105.278 115.44C102.078 115.44 99.3175 114.28 96.9975 111.96C94.6775 109.64 93.5175 106.88 93.5175 103.68C93.5175 100.4 94.6775 97.64 96.9975 95.4C99.3175 93.16 102.078 92.04 105.278 92.04C108.478 92.04 111.198 93.16 113.438 95.4C115.758 97.64 116.918 100.4 116.918 103.68C116.918 106.88 115.758 109.64 113.438 111.96C111.198 114.28 108.478 115.44 105.278 115.44ZM123.526 114L126.646 99.12H137.686L148.486 48.72H137.446L140.566 33.84H181.966L178.726 48.72H167.686L157.126 99.12H168.046L164.806 114H123.526ZM172.364 114L219.644 33.84H241.604L254.924 114H235.124L233.204 99.72H202.604L194.684 114H172.364ZM210.764 84.36H231.404L227.564 53.88L210.764 84.36Z" fill="#E8E8E8"/>
</svg>
